<svg xmlns="http://www.w3.org/2000/svg" height="96" viewBox="0 0 24 24" width="96">
    <defs>
        <linearGradient id="grad1" x1="0%" y1="0%" x2="100%" y2="0%">
            <stop offset="0%" stop-color="rgb(147,200,61)" />
            <stop offset="50%" stop-color="rgb(0,104,127)" />
            <stop offset="100%" stop-color="rgb(41,196,244)" />
        </linearGradient>
    </defs>
    <path d="M0 0h24v24H0V0z" fill="url(#grad1)"/>
    <path d="M3 17.46v3.04c0 .28.22.5.5.5h3.04c.13 0 .26-.05.35-.15L17.81 9.94l-3.75-3.75L3.15 17.1c-.1.1-.15.22-.15.36zM20.71 7.04c.39-.39.39-1.02 0-1.41l-2.34-2.34c-.39-.39-1.02-.39-1.41 0l-1.83 1.83 3.75 3.75 1.83-1.83z" fill="white"/>
</svg>